<?xml version="1.0" standalone="no"?>
<!DOCTYPE svg PUBLIC "-//W3C//DTD SVG 20010904//EN"
 "http://www.w3.org/TR/2001/REC-SVG-20010904/DTD/svg10.dtd">
<svg version="1.0" xmlns="http://www.w3.org/2000/svg"
 width="512.000000pt" height="512.000000pt" viewBox="0 0 512.000000 512.000000"
 preserveAspectRatio="xMidYMid meet">

<g transform="translate(0.000000,512.000000) scale(0.100000,-0.100000)"
fill="#000000" stroke="none">
<path d="M4072 4077 c-529 -529 -962 -965 -962 -970 0 -4 132 -7 293 -7 l293
0 29 -30 c32 -34 35 -63 16 -150 -35 -159 53 -331 207 -407 51 -25 68 -28 157
-28 93 0 105 2 166 32 79 39 141 102 177 181 21 47 26 72 26 142 0 47 -4 111
-8 142 -8 55 -8 58 22 87 l30 31 301 0 302 0 -3 918 c-3 874 -4 919 -22 952
-20 38 -45 70 -55 70 -3 0 -439 -433 -969 -963z"/>
<path d="M2020 1727 c0 -321 0 -321 -61 -353 -27 -14 -37 -14 -106 2 -178 39
-338 -38 -420 -202 -33 -69 -37 -83 -37 -157 1 -109 28 -178 100 -256 75 -82
151 -115 259 -115 44 -1 101 3 127 8 63 12 95 2 118 -37 19 -30 20 -51 20
-324 l0 -293 893 0 c983 0 954 -2 1031 62 21 17 49 54 62 82 l24 51 0 913 0
913 -296 -3 -296 -3 -30 -34 c-29 -32 -30 -37 -22 -85 5 -28 8 -91 8 -141 0
-78 -3 -98 -28 -148 -36 -74 -109 -147 -183 -184 -52 -25 -68 -28 -158 -28
-87 0 -107 3 -155 26 -157 75 -251 249 -219 407 19 98 20 106 7 132 -7 14 -29
33 -48 42 -31 16 -68 18 -312 18 l-278 0 0 -293z"/>
</g>
</svg>
